# xmcd CD database file
#
# Track frame offsets:
#	150
#	21345
#	47428
#	58437
#	79100
#	94520
#
# Disc length: 1582 seconds
#
# Revision: 0
# Processed by: cddbd v1.5.2PL0 Copyright (c) Steve Scherf et al.
# Submitted via: CDex 1.70beta2
#
DISCID=45062c06
DTITLE=Janinto - Janinto II
DYEAR=2007
DGENRE=New Age
TTITLE0=Mie Tihl
TTITLE1=Rohn
TTITLE2=Blu Yons Tae
TTITLE3=Nihl Fai Yo
TTITLE4=Viol Chin
TTITLE5=Maripoo
EXTD=YEAR: 2007
EXTT0=
EXTT1=
EXTT2=
EXTT3=
EXTT4=
EXTT5=
PLAYORDER=
